<?xml version="1.0" standalone="no"?>
<!DOCTYPE svg PUBLIC "-//W3C//DTD SVG 20010904//EN"
 "http://www.w3.org/TR/2001/REC-SVG-20010904/DTD/svg10.dtd">
<svg version="1.0" xmlns="http://www.w3.org/2000/svg"
 width="300.000000pt" height="300.000000pt" viewBox="0 0 300.000000 300.000000"
 preserveAspectRatio="xMidYMid meet">
<g transform="translate(0.000000,300.000000) scale(0.100000,-0.100000)"
fill="#000000" stroke="none">
<path d="M1355 2994 c-229 -33 -374 -77 -544 -164 -198 -103 -383 -261 -521
-445 -121 -162 -224 -401 -267 -620 -24 -125 -24 -405 0 -530 44 -222 147
-460 271 -625 79 -105 215 -241 321 -320 162 -121 401 -224 620 -267 125 -24
405 -24 530 0 222 44 460 147 625 271 105 79 241 215 320 321 121 162 224 401
267 620 24 125 24 405 0 530 -44 222 -147 460 -271 625 -79 106 -216 241 -321
320 -161 120 -388 219 -594 261 -92 19 -366 33 -436 23z m166 -856 c0 -128 0
-257 -1 -285 l-1 -53 43 0 c147 -2 298 -19 373 -45 440 -146 580 -618 275
-925 -78 -77 -165 -131 -275 -167 -72 -24 -99 -27 -267 -31 -178 -4 -188 -3
-189 14 0 11 0 139 0 287 l0 267 -42 0 c-240 2 -389 34 -519 111 -372 219
-389 699 -34 937 140 94 243 120 474 121 l162 1 1 -232z"/>
</g>
</svg>
