<svg width="405" height="214" viewBox="0 0 405 214" fill="none" xmlns="http://www.w3.org/2000/svg">
<circle cx="3.52358" cy="210.476" r="3.52358" transform="rotate(-90 3.52358 210.476)" fill="#8A79FF" fill-opacity="0.25"/>
<circle cx="3.52358" cy="158.798" r="3.52358" transform="rotate(-90 3.52358 158.798)" fill="#8A79FF" fill-opacity="0.25"/>
<circle cx="3.52358" cy="107.118" r="3.52358" transform="rotate(-90 3.52358 107.118)" fill="#8A79FF" fill-opacity="0.25"/>
<circle cx="3.52358" cy="55.4393" r="3.52358" transform="rotate(-90 3.52358 55.4393)" fill="#8A79FF" fill-opacity="0.25"/>
<circle cx="3.52358" cy="3.75962" r="3.52358" transform="rotate(-90 3.52358 3.75962)" fill="#8A79FF" fill-opacity="0.25"/>
<circle cx="55.2028" cy="210.476" r="3.52358" transform="rotate(-90 55.2028 210.476)" fill="#8A79FF" fill-opacity="0.25"/>
<circle cx="55.2028" cy="158.798" r="3.52358" transform="rotate(-90 55.2028 158.798)" fill="#8A79FF" fill-opacity="0.25"/>
<circle cx="55.2028" cy="107.118" r="3.52358" transform="rotate(-90 55.2028 107.118)" fill="#8A79FF" fill-opacity="0.25"/>
<circle cx="55.2028" cy="55.4393" r="3.52358" transform="rotate(-90 55.2028 55.4393)" fill="#8A79FF" fill-opacity="0.25"/>
<circle cx="55.2028" cy="3.75962" r="3.52358" transform="rotate(-90 55.2028 3.75962)" fill="#8A79FF" fill-opacity="0.25"/>
<circle cx="106.882" cy="210.476" r="3.52358" transform="rotate(-90 106.882 210.476)" fill="#8A79FF" fill-opacity="0.25"/>
<circle cx="106.882" cy="158.798" r="3.52358" transform="rotate(-90 106.882 158.798)" fill="#8A79FF" fill-opacity="0.25"/>
<circle cx="106.882" cy="107.118" r="3.52358" transform="rotate(-90 106.882 107.118)" fill="#8A79FF" fill-opacity="0.25"/>
<circle cx="106.882" cy="55.4393" r="3.52358" transform="rotate(-90 106.882 55.4393)" fill="#8A79FF" fill-opacity="0.25"/>
<circle cx="106.882" cy="3.75962" r="3.52358" transform="rotate(-90 106.882 3.75962)" fill="#8A79FF" fill-opacity="0.25"/>
<circle cx="158.561" cy="210.476" r="3.52358" transform="rotate(-90 158.561 210.476)" fill="#8A79FF" fill-opacity="0.25"/>
<circle cx="158.561" cy="158.798" r="3.52358" transform="rotate(-90 158.561 158.798)" fill="#8A79FF" fill-opacity="0.25"/>
<circle cx="158.561" cy="107.118" r="3.52358" transform="rotate(-90 158.561 107.118)" fill="#8A79FF" fill-opacity="0.25"/>
<circle cx="158.561" cy="55.4393" r="3.52358" transform="rotate(-90 158.561 55.4393)" fill="#8A79FF" fill-opacity="0.25"/>
<circle cx="158.561" cy="3.75962" r="3.52358" transform="rotate(-90 158.561 3.75962)" fill="#8A79FF" fill-opacity="0.25"/>
<circle cx="210.24" cy="210.476" r="3.52358" transform="rotate(-90 210.24 210.476)" fill="#8A79FF" fill-opacity="0.25"/>
<circle cx="210.24" cy="158.797" r="3.52358" transform="rotate(-90 210.24 158.797)" fill="#8A79FF" fill-opacity="0.25"/>
<circle cx="210.24" cy="107.118" r="3.52358" transform="rotate(-90 210.24 107.118)" fill="#8A79FF" fill-opacity="0.25"/>
<circle cx="210.24" cy="55.4393" r="3.52358" transform="rotate(-90 210.24 55.4393)" fill="#8A79FF" fill-opacity="0.25"/>
<circle cx="210.24" cy="3.75962" r="3.52358" transform="rotate(-90 210.24 3.75962)" fill="#8A79FF" fill-opacity="0.25"/>
<circle cx="261.92" cy="210.476" r="3.52358" transform="rotate(-90 261.92 210.476)" fill="#8A79FF" fill-opacity="0.25"/>
<circle cx="261.919" cy="158.797" r="3.52358" transform="rotate(-90 261.919 158.797)" fill="#8A79FF" fill-opacity="0.25"/>
<circle cx="261.919" cy="107.118" r="3.52358" transform="rotate(-90 261.919 107.118)" fill="#8A79FF" fill-opacity="0.25"/>
<circle cx="261.919" cy="55.4393" r="3.52358" transform="rotate(-90 261.919 55.4393)" fill="#8A79FF" fill-opacity="0.25"/>
<circle cx="261.919" cy="3.75962" r="3.52358" transform="rotate(-90 261.919 3.75962)" fill="#8A79FF" fill-opacity="0.25"/>
<circle cx="313.599" cy="210.476" r="3.52358" transform="rotate(-90 313.599 210.476)" fill="#8A79FF" fill-opacity="0.25"/>
<circle cx="313.599" cy="158.797" r="3.52358" transform="rotate(-90 313.599 158.797)" fill="#8A79FF" fill-opacity="0.25"/>
<circle cx="313.599" cy="107.118" r="3.52358" transform="rotate(-90 313.599 107.118)" fill="#8A79FF" fill-opacity="0.25"/>
<circle cx="313.599" cy="55.4393" r="3.52358" transform="rotate(-90 313.599 55.4393)" fill="#8A79FF" fill-opacity="0.25"/>
<circle cx="313.599" cy="3.75962" r="3.52358" transform="rotate(-90 313.599 3.75962)" fill="#8A79FF" fill-opacity="0.25"/>
<circle cx="365.278" cy="210.476" r="3.52358" transform="rotate(-90 365.278 210.476)" fill="#8A79FF" fill-opacity="0.25"/>
<circle cx="365.278" cy="158.797" r="3.52358" transform="rotate(-90 365.278 158.797)" fill="#8A79FF" fill-opacity="0.25"/>
<circle cx="365.278" cy="107.118" r="3.52358" transform="rotate(-90 365.278 107.118)" fill="#8A79FF" fill-opacity="0.25"/>
<circle cx="365.278" cy="55.4393" r="3.52358" transform="rotate(-90 365.278 55.4393)" fill="#8A79FF" fill-opacity="0.25"/>
<circle cx="365.278" cy="3.75962" r="3.52358" transform="rotate(-90 365.278 3.75962)" fill="#8A79FF" fill-opacity="0.25"/>
</svg>
